<svg width="16" height="16" viewBox="0 0 16 16" fill="none" xmlns="http://www.w3.org/2000/svg">
<path fill-rule="evenodd" clip-rule="evenodd" d="M7.49976 5C7.49976 5.82843 6.82818 6.5 5.99976 6.5C5.17133 6.5 4.49976 5.82843 4.49976 5C4.49976 4.17157 5.17133 3.5 5.99976 3.5C6.82818 3.5 7.49976 4.17157 7.49976 5ZM8.90524 5.75C8.57221 7.04392 7.39764 8 5.99976 8C4.60188 8 3.4273 7.04392 3.09427 5.75H1.74707C1.33286 5.75 0.99707 5.41421 0.99707 5C0.99707 4.58579 1.33286 4.25 1.74707 4.25H3.09427C3.4273 2.95608 4.60188 2 5.99976 2C7.39764 2 8.57221 2.95608 8.90524 4.25H14.2499C14.6641 4.25 14.9999 4.58579 14.9999 5C14.9999 5.41421 14.6641 5.75 14.2499 5.75H8.90524ZM1.74707 10.25L7.09183 10.25C7.42486 8.95608 8.59944 8 9.99732 8C11.3952 8 12.5698 8.95608 12.9028 10.25H14.25C14.6642 10.25 15 10.5858 15 11C15 11.4142 14.6642 11.75 14.25 11.75H12.9028C12.5698 13.0439 11.3952 14 9.99731 14C8.59944 14 7.42486 13.0439 7.09183 11.75L1.74707 11.75C1.33286 11.75 0.99707 11.4142 0.99707 11C0.99707 10.5858 1.33286 10.25 1.74707 10.25ZM9.99731 9.5C9.16889 9.5 8.49731 10.1716 8.49731 11C8.49731 11.8284 9.16889 12.5 9.99731 12.5C10.8257 12.5 11.4973 11.8284 11.4973 11C11.4973 10.1716 10.8257 9.5 9.99731 9.5Z" fill="black" fill-opacity="0.85"/>
</svg>
