<svg width="16" height="16" viewBox="0 0 16 16" fill="none" xmlns="http://www.w3.org/2000/svg">
<g clip-path="url(#clip0_1304_10019)">
<path fill-rule="evenodd" clip-rule="evenodd" d="M10.2184 3.21571C10.3374 2.81896 10.1123 2.40085 9.71551 2.28183C9.31877 2.1628 8.90065 2.38794 8.78163 2.78469L5.78163 12.7847C5.66261 13.1814 5.88774 13.5995 6.28449 13.7186C6.68123 13.8376 7.09935 13.6125 7.21837 13.2157L10.2184 3.21571ZM4.53033 4.96962C4.82322 5.26252 4.82322 5.73739 4.53033 6.03028L2.56066 7.99995L4.53033 9.96962C4.82322 10.2625 4.82322 10.7374 4.53033 11.0303C4.23744 11.3232 3.76256 11.3232 3.46967 11.0303L0.96967 8.53028C0.829018 8.38963 0.75 8.19887 0.75 7.99995C0.75 7.80104 0.829018 7.61028 0.96967 7.46962L3.46967 4.96962C3.76256 4.67673 4.23744 4.67673 4.53033 4.96962ZM11.4697 11.0303C11.1768 10.7374 11.1768 10.2625 11.4697 9.96962L13.4393 7.99995L11.4697 6.03028C11.1768 5.73739 11.1768 5.26252 11.4697 4.96962C11.7626 4.67673 12.2374 4.67673 12.5303 4.96962L15.0303 7.46962C15.171 7.61028 15.25 7.80104 15.25 7.99995C15.25 8.19887 15.171 8.38963 15.0303 8.53028L12.5303 11.0303C12.2374 11.3232 11.7626 11.3232 11.4697 11.0303Z" fill="black" fill-opacity="0.85"/>
</g>
<defs>
<clipPath id="clip0_1304_10019">
<rect width="16" height="16" fill="white"/>
</clipPath>
</defs>
</svg>
