<svg width="16" height="16" viewBox="0 0 16 16" fill="none" xmlns="http://www.w3.org/2000/svg">
<g clip-path="url(#clip0_1242_7919)">
<path fill-rule="evenodd" clip-rule="evenodd" d="M7.19851 2H8.80103C8.91076 2 8.99975 2.08897 8.99975 2.19874C8.99975 4.00722 10.9575 5.13763 12.5238 4.23334C12.6188 4.17848 12.7403 4.21104 12.7952 4.30606L13.5965 5.69395C13.6513 5.789 13.6188 5.91054 13.5237 5.96542C11.9575 6.86968 11.9575 9.13036 13.5237 10.0346C13.6188 10.0895 13.6513 10.2111 13.5965 10.3061L12.7952 11.694C12.7403 11.789 12.6188 11.8216 12.5238 11.7667C10.9575 10.8624 8.99975 11.9928 8.99975 13.8013C8.99975 13.911 8.91078 14 8.80105 14H7.19849C7.08872 14 6.99975 13.911 6.99975 13.8013C6.99975 11.9927 5.04189 10.8624 3.47568 11.7667C3.38059 11.8216 3.25901 11.789 3.20413 11.6939L2.40289 10.3061C2.34801 10.2111 2.38057 10.0895 2.47563 10.0346C4.04187 9.13036 4.04187 6.86969 2.47563 5.96541C2.38057 5.91054 2.34801 5.78899 2.40289 5.69394L3.20413 4.30614C3.25902 4.21107 3.38059 4.1785 3.47567 4.23339C5.04191 5.13766 6.99975 4.00733 6.99975 2.19877C6.99975 2.08899 7.08874 2 7.19851 2ZM5.49975 2.19877C5.49975 1.26056 6.26031 0.5 7.19851 0.5H8.80103C9.7392 0.5 10.4997 1.26056 10.4997 2.19874C10.4997 2.85256 11.2075 3.26121 11.7738 2.9343C12.5862 2.46522 13.6251 2.7436 14.0942 3.55606L14.8955 4.94395C15.3646 5.75644 15.0862 6.79536 14.2737 7.26445C13.7075 7.59137 13.7075 8.40867 14.2737 8.7356C15.0862 9.20469 15.3646 10.2436 14.8955 11.0561L14.0942 12.444C13.6251 13.2565 12.5862 13.5348 11.7738 13.0657C11.2075 12.7388 10.4997 13.1475 10.4997 13.8013C10.4997 14.7395 9.73921 15.5 8.80105 15.5H7.19849C6.2603 15.5 5.49975 14.7394 5.49975 13.8013C5.49975 13.1474 4.79193 12.7388 4.22568 13.0657C3.41317 13.5348 2.3742 13.2564 1.90509 12.4439L1.10385 11.0561C0.634755 10.2436 0.913135 9.20469 1.72563 8.7356C2.29187 8.40867 2.29187 7.59137 1.72563 7.26445C0.913135 6.79536 0.634756 5.75643 1.10385 4.94394L1.90509 3.55614C2.3742 2.74363 3.41316 2.46525 4.22567 2.93435C4.79192 3.26128 5.49975 2.85262 5.49975 2.19877ZM9.49972 8C9.49972 8.82843 8.82815 9.5 7.99972 9.5C7.17129 9.5 6.49972 8.82843 6.49972 8C6.49972 7.17157 7.17129 6.5 7.99972 6.5C8.82815 6.5 9.49972 7.17157 9.49972 8ZM10.9997 8C10.9997 9.65685 9.65657 11 7.99972 11C6.34287 11 4.99972 9.65685 4.99972 8C4.99972 6.34315 6.34287 5 7.99972 5C9.65657 5 10.9997 6.34315 10.9997 8Z" fill="black" fill-opacity="0.85"/>
</g>
<defs>
<clipPath id="clip0_1242_7919">
<rect width="16" height="16" fill="white"/>
</clipPath>
</defs>
</svg>
