<svg width="16" height="16" viewBox="0 0 16 16" fill="none" xmlns="http://www.w3.org/2000/svg">
<g clip-path="url(#clip0_1234_14220)">
<path d="M13 10C13.3394 10 13.6367 10.2279 13.7246 10.5557C13.9567 11.4218 14.5782 12.0433 15.4443 12.2754C15.7721 12.3633 16 12.6606 16 13C16 13.3394 15.7721 13.6367 15.4443 13.7246C14.5782 13.9567 13.9567 14.5782 13.7246 15.4443C13.6367 15.7721 13.3394 16 13 16C12.6606 16 12.3633 15.7721 12.2754 15.4443C12.0433 14.5782 11.4218 13.9567 10.5557 13.7246C10.2279 13.6367 10 13.3394 10 13C10 12.6606 10.2279 12.3633 10.5557 12.2754C11.4218 12.0433 12.0433 11.4218 12.2754 10.5557L12.3184 10.4375C12.4388 10.1744 12.7031 10 13 10ZM7 0C7.48884 -4.42042e-10 7.90596 0.35375 7.98633 0.835938C8.26467 2.50572 8.80067 3.63661 9.58203 4.41797C10.3634 5.19933 11.4943 5.73533 13.1641 6.01367C13.6463 6.09404 14 6.51116 14 7C14 7.48884 13.6463 7.90596 13.1641 7.98633C11.4943 8.26467 10.3634 8.80067 9.58203 9.58203C8.80067 10.3634 8.26467 11.4943 7.98633 13.1641C7.90596 13.6463 7.48884 14 7 14C6.51116 14 6.09404 13.6463 6.01367 13.1641C5.73533 11.4943 5.19933 10.3634 4.41797 9.58203C3.63661 8.80067 2.50572 8.26467 0.835938 7.98633C0.35375 7.90596 -4.42224e-10 7.48884 0 7C3.14995e-08 6.51116 0.35375 6.09404 0.835938 6.01367C2.50572 5.73533 3.63661 5.19933 4.41797 4.41797C5.19933 3.63661 5.73533 2.50572 6.01367 0.835938L6.03223 0.74707C6.14594 0.310735 6.54158 2.95393e-08 7 0Z" fill="url(#paint0_linear_1234_14220)"/>
</g>
<defs>
<linearGradient id="paint0_linear_1234_14220" x1="0" y1="0" x2="16" y2="16" gradientUnits="userSpaceOnUse">
<stop stop-color="#E880FF"/>
<stop offset="1" stop-color="#668CFF"/>
</linearGradient>
<clipPath id="clip0_1234_14220">
<rect width="16" height="16" fill="white"/>
</clipPath>
</defs>
</svg>
