<svg width="16" height="16" viewBox="0 0 16 16" fill="none" xmlns="http://www.w3.org/2000/svg">
<g clip-path="url(#clip0_1242_7925)">
<path fill-rule="evenodd" clip-rule="evenodd" d="M5.91596 7.02691C5.75373 6.39808 5.36771 5.85001 4.83027 5.48545C4.29283 5.12089 3.64088 4.96487 2.99663 5.04664C2.35238 5.1284 1.76007 5.44234 1.33074 5.92961C0.901417 6.41687 0.664551 7.04399 0.664551 7.6934C0.664551 8.34282 0.901417 8.96994 1.33074 9.4572C1.76007 9.94446 2.35238 10.2584 2.99663 10.3402C3.64088 10.4219 4.29283 10.2659 4.83027 9.90136C5.36771 9.5368 5.75373 8.98873 5.91596 8.3599H7.33296V11.0269C7.33296 11.5573 7.54367 12.066 7.91875 12.4411C8.29382 12.8162 8.80253 13.0269 9.33296 13.0269H10.083C10.2463 13.6545 10.6326 14.2011 11.1697 14.5646C11.7068 14.9281 12.3579 15.0834 13.0012 15.0017C13.6446 14.92 14.2361 14.6067 14.6653 14.1205C15.0944 13.6343 15.3318 13.0084 15.333 12.3599C15.3327 11.711 15.0959 11.0844 14.6668 10.5975C14.2378 10.1107 13.6459 9.79694 13.0022 9.71513C12.3584 9.63333 11.7069 9.78905 11.1697 10.1531C10.6325 10.5172 10.2465 11.0646 10.084 11.6929H9.33396C9.15723 11.6929 8.98773 11.6228 8.86267 11.4979C8.73761 11.373 8.66722 11.2036 8.66696 11.0269V4.35991C8.66696 3.99191 8.96496 3.6929 9.33296 3.6929H10.084C10.2462 4.32173 10.6322 4.8698 11.1697 5.23436C11.7071 5.59892 12.359 5.75494 13.0033 5.67317C13.6475 5.59141 14.2398 5.27747 14.6692 4.79021C15.0985 4.30294 15.3354 3.67582 15.3354 3.0264C15.3354 2.37699 15.0985 1.74987 14.6692 1.26261C14.2398 0.775345 13.6475 0.461404 13.0033 0.379637C12.359 0.29787 11.7071 0.453891 11.1697 0.818451C10.6322 1.18301 10.2462 1.73108 10.084 2.3599H9.33396C8.80353 2.3599 8.29482 2.57062 7.91975 2.94569C7.54467 3.32076 7.33396 3.82947 7.33396 4.35991V7.02691H5.91596ZM4.66596 7.68691C4.66437 7.3339 4.52282 6.99593 4.27236 6.74716C4.0219 6.49838 3.68299 6.35911 3.32997 6.35991C2.97696 6.3607 2.63868 6.50149 2.38934 6.75139C2.14 7.00129 1.99997 7.33989 1.99997 7.6929C1.99997 8.04592 2.14 8.38452 2.38934 8.63442C2.63868 8.88432 2.97696 9.02511 3.32997 9.0259C3.68299 9.0267 4.0219 8.88743 4.27236 8.63865C4.52282 8.38988 4.66437 8.05192 4.66596 7.69891V7.68691ZM14 3.0269C14 3.38057 13.8595 3.71975 13.6094 3.96983C13.3593 4.21991 13.0201 4.3604 12.6665 4.3604C12.3128 4.3604 11.9736 4.21991 11.7235 3.96983C11.4735 3.71975 11.333 3.38057 11.333 3.0269C11.333 2.67324 11.4735 2.33406 11.7235 2.08398C11.9736 1.8339 12.3128 1.69341 12.6665 1.69341C13.0201 1.69341 13.3593 1.8339 13.6094 2.08398C13.8595 2.33406 14 2.67324 14 3.0269ZM12.667 13.6929C13.0205 13.6929 13.3595 13.5525 13.6095 13.3025C13.8595 13.0525 14 12.7134 14 12.3599C14 12.0064 13.8595 11.6673 13.6095 11.4173C13.3595 11.1673 13.0205 11.0269 12.667 11.0269C12.3133 11.0269 11.9741 11.1674 11.724 11.4175C11.474 11.6676 11.3335 12.0067 11.3335 12.3604C11.3335 12.7141 11.474 13.0533 11.724 13.3033C11.9741 13.5534 12.3133 13.6939 12.667 13.6939V13.6929Z" fill="black" fill-opacity="0.85"/>
</g>
<defs>
<clipPath id="clip0_1242_7925">
<rect width="16" height="16" fill="white"/>
</clipPath>
</defs>
</svg>
